<svg version="1.1" preserveAspectRatio="xMidYMid meet" xmlns="http://www.w3.org/2000/svg" xmlns:xlink="http://www.w3.org/1999/xlink" viewBox="-272.059 0 1544.118 1000" style="cursor: pointer;"><defs><path d="M409.332,459.155 L409.332,459.155 L409.332,459.155 Q406.029,498.664,407.436,538.478 Q408.842,578.293,418.383,616.7 L418.383,616.7 Q419.117,620.37,416.548,622.327 Q413.98,624.284,410.861,623.795 Q407.742,623.305,406.518,619.758 L406.518,619.758 Q397.1,581.717,395.204,542.27 Q393.308,502.822,396.488,463.314 L396.488,463.314 Q396.366,463.436,396.244,463.436 L396.244,463.436 Q395.999,463.558,395.754,463.558 L395.754,463.558 Q370.19,473.466,347.317,488.511 Q324.443,503.556,304.138,521.048 L304.138,521.048 Q283.344,538.417,265.119,558.11 L265.119,558.11 Q262.673,560.556,259.676,559.761 Q256.679,558.966,255.15,556.398 Q253.621,553.829,255.578,551.138 L255.578,551.138 Q280.409,519.58,305.117,487.777 L305.117,487.777 Q344.381,437.382,382.789,386.376 L382.789,386.376 Q397.589,366.927,411.533,346.99 L411.533,346.99 Q411.656,346.867,411.656,346.867 L411.656,346.867 Q413.368,344.299,415.081,341.73 L415.081,341.73 Q416.426,337.204,418.75,332.495 Q421.074,327.786,424.377,325.829 Q427.679,323.872,431.838,327.786 L431.838,327.786 Q435.263,331.578,432.572,337.021 Q429.881,342.464,426.334,346.867 L426.334,346.867 Q423.276,357.631,421.196,368.64 L421.196,368.64 Q414.102,404.601,410.922,440.93 L410.922,440.93 Q410.677,443.865,410.31,446.679 L410.31,446.679 Q432.327,440.93,455.078,443.009 L455.078,443.009 Q458.993,443.621,460.277,446.556 Q461.561,449.492,460.277,452.183 Q458.993,454.874,455.078,454.629 L455.078,454.629 Q431.593,452.55,409.332,459.155 Z M348.54,474.078 L348.54,474.078 L348.54,474.078 Q371.291,459.767,397.589,450.47 L397.589,450.47 Q399.302,431.144,401.87,412.185 L401.87,412.185 Q404.317,392.37,407.864,372.799 L407.864,372.799 Q401.503,381.361,395.02,389.923 L395.02,389.923 Q353.188,445.822,310.254,500.743 L310.254,500.743 Q328.602,486.31,348.54,474.078 Z M521.742,556.52 L521.742,556.52 L521.742,556.52 Q524.922,558.477,524.616,561.535 Q524.31,564.593,521.803,566.428 Q519.295,568.262,515.87,566.55 L515.87,566.55 Q506.941,561.413,496.667,556.765 L496.667,556.765 Q483.823,567.773,467.433,573.033 L467.433,573.033 Q460.827,575.235,452.021,576.091 L452.021,576.091 Q451.776,576.947,451.654,577.926 L451.654,577.926 Q451.531,578.659,451.409,579.393 L451.409,579.393 Q446.149,641.898,441.868,704.524 L441.868,704.524 Q441.379,708.316,438.566,709.539 Q435.752,710.763,433,709.539 Q430.248,708.316,430.248,704.524 L430.248,704.524 Q430.86,688.745,429.514,672.844 L429.514,672.844 Q428.78,662.814,428.536,652.723 Q428.291,642.632,429.514,632.724 L429.514,632.724 Q432.205,614.009,436.364,595.417 L436.364,595.417 Q438.199,586.732,439.789,578.17 L439.789,578.17 Q439.911,577.314,439.911,576.58 L439.911,576.58 Q440.033,575.846,440.033,575.112 L440.033,575.112 Q435.385,573.889,432.389,570.464 Q429.392,567.039,429.269,560.679 L429.269,560.679 Q429.269,553.095,433.122,548.08 Q436.975,543.065,442.969,540.252 L442.969,540.252 Q446.272,500.865,449.452,461.357 L449.452,461.357 Q449.941,457.687,452.816,456.464 Q455.69,455.241,458.381,456.464 Q461.072,457.687,461.072,461.357 L461.072,461.357 Q459.482,481.539,457.769,501.722 L457.769,501.722 Q457.892,501.232,458.014,500.865 L458.014,500.865 Q458.136,500.376,458.259,499.887 L458.259,499.887 Q460.583,492.181,464.68,483.986 Q468.778,475.79,475.2,469.98 Q481.621,464.17,490.795,463.436 L490.795,463.436 Q498.379,463.314,503.516,467.656 Q508.654,471.998,511.773,478.481 Q514.892,484.964,516.36,491.447 L516.36,491.447 Q519.54,504.29,518.011,517.195 Q516.482,530.099,509.632,541.597 L509.632,541.597 Q507.553,544.9,505.106,547.958 L505.106,547.958 Q513.791,551.994,521.742,556.52 Z M476.606,486.065 L476.606,486.065 L476.606,486.065 Q470.735,496.462,468.044,508.204 L468.044,508.204 Q466.454,513.953,464.864,519.702 L464.864,519.702 Q462.418,528.265,460.216,536.827 L460.216,536.827 Q477.096,536.827,493.486,543.065 L493.486,543.065 Q500.825,534.992,504.434,524.656 Q508.042,514.32,506.574,502.089 L506.574,502.089 Q506.085,498.052,504.739,492.181 Q503.394,486.31,500.642,481.356 Q497.89,476.402,493.242,475.179 L493.242,475.179 Q488.104,474.445,483.64,478.237 Q479.175,482.028,476.606,486.065 Z M441.379,557.132 L441.379,557.132 L441.379,557.132 Q440.523,559.945,441.257,561.535 L441.257,561.535 Q441.257,560.434,441.379,559.211 L441.379,559.211 Q441.501,557.865,441.624,556.52 L441.624,556.52 Q441.624,556.642,441.501,556.765 L441.501,556.765 Q441.501,556.887,441.379,557.132 Z M456.791,563.859 L456.791,563.859 L456.791,563.859 Q471.714,560.556,483.579,551.994 L483.579,551.994 Q470.491,547.713,457.28,548.447 L457.28,548.447 Q455.935,554.318,454.834,560.189 L454.834,560.189 Q454.589,561.413,454.345,562.758 L454.345,562.758 Q454.222,563.614,454.1,564.348 L454.1,564.348 Q455.568,564.104,456.791,563.859 Z M584.124,478.726 L584.124,478.726 L584.124,478.726 Q584.98,480.194,584.98,481.906 L584.98,481.906 Q586.692,490.713,585.836,500.254 Q584.98,509.795,582.901,516.767 L582.901,516.767 Q580.332,526.307,574.583,536.215 Q568.834,546.123,560.088,551.444 Q551.343,556.765,539.845,552.606 L539.845,552.606 Q530.915,548.692,527.674,540.619 Q524.433,532.546,524.983,523.127 Q525.534,513.709,527.98,505.758 L527.98,505.758 Q530.182,497.807,534.585,489.001 L534.585,489.001 Q533.484,488.511,532.506,487.533 L532.506,487.533 Q528.836,483.129,532.689,478.848 Q536.542,474.567,543.575,471.142 Q550.609,467.717,556.358,465.883 L556.358,465.883 Q559.66,464.415,563.207,463.925 L563.207,463.925 Q564.797,463.681,566.021,464.17 L566.021,464.17 Q573.482,464.292,577.885,468.329 Q582.289,472.365,584.124,478.726 Z M563.085,475.913 L563.085,475.913 L563.085,475.913 Q560.761,476.769,558.682,477.992 L558.682,477.992 Q564.431,477.625,570.057,477.258 L570.057,477.258 Q568.589,476.035,566.143,475.79 L566.143,475.79 Q564.675,475.668,563.085,475.913 Z M539.967,478.604 L539.967,478.604 L539.967,478.604 L539.967,478.604 Q539.478,478.237,539.294,478.175 Q539.111,478.114,539.172,478.175 Q539.233,478.237,539.417,478.42 Q539.6,478.604,539.967,478.604 Z M561.128,535.604 L561.128,535.604 L561.128,535.604 Q568.1,526.797,571.525,515.299 Q574.95,503.801,574.705,492.67 L574.705,492.67 Q574.705,490.713,574.583,488.511 L574.583,488.511 Q574.094,488.511,573.727,488.634 L573.727,488.634 Q560.516,489.734,547.306,490.224 L547.306,490.224 Q547.306,490.224,547.306,490.224 L547.306,490.224 Q547.306,490.224,547.306,490.224 L547.306,490.224 Q544.003,495.85,541.802,501.232 L541.802,501.232 Q538.499,508.938,536.848,518.235 Q535.197,527.531,538.255,535.604 L538.255,535.604 Q542.046,543.432,549.08,542.453 Q556.113,541.475,561.128,535.604 Z M700.448,344.299 L700.448,344.299 L700.448,344.299 Q706.074,340.507,712.557,340.996 Q719.04,341.485,723.199,347.479 L723.199,347.479 Q727.48,354.818,726.44,363.931 Q725.401,373.043,723.077,380.627 L723.077,380.627 Q715.738,405.213,704.607,428.209 L704.607,428.209 Q689.439,460.99,671.336,492.181 L671.336,492.181 Q670.847,493.282,670.235,494.26 L670.235,494.26 Q670.113,494.75,669.868,495.239 L669.868,495.239 Q669.746,498.541,669.624,501.844 L669.624,501.844 Q669.257,517.011,670.113,533.218 Q670.969,549.426,674.945,564.899 Q678.92,580.372,687.604,593.338 L687.604,593.338 Q689.562,596.518,687.788,598.964 Q686.014,601.411,682.895,601.839 Q679.776,602.267,677.452,599.209 L677.452,599.209 Q669.868,587.956,665.954,574.806 Q662.04,561.657,660.328,548.325 L660.328,548.325 Q658.248,532.79,657.881,517.256 L657.881,517.256 Q652.377,526.674,645.894,535.359 L645.894,535.359 Q641.368,541.597,635.191,547.163 Q629.014,552.728,621.981,554.012 Q614.948,555.297,607.731,548.569 L607.731,548.569 Q600.881,541.353,598.251,531.384 Q595.622,521.415,595.01,511.752 L595.01,511.752 Q593.053,484.23,597.579,456.953 L597.579,456.953 Q601.248,429.676,610.422,403.623 L610.422,403.623 Q613.358,394.816,617.883,385.642 Q622.409,376.468,630.115,370.719 L630.115,370.719 Q636.965,366.071,643.754,368.273 Q650.542,370.475,652.989,378.67 L652.989,378.67 Q655.19,388.578,652.316,399.403 Q649.441,410.228,645.65,419.646 L645.65,419.646 Q645.16,420.992,644.671,422.093 L644.671,422.093 Q628.77,462.58,606.997,500.254 L606.997,500.254 Q606.508,500.988,606.141,501.477 L606.141,501.477 Q606.263,508.694,607.119,515.91 L607.119,515.91 Q607.731,522.393,610.055,530.405 Q612.379,538.417,618.373,541.964 L618.373,541.964 Q622.531,543.677,627.302,539.579 Q632.072,535.481,636.231,529.427 Q640.39,523.372,642.959,518.968 L642.959,518.968 Q643.692,517.745,644.304,516.889 L644.304,516.889 Q651.765,504.902,658.248,492.181 L658.248,492.181 Q658.493,487.41,658.738,482.64 L658.738,482.64 Q660.45,454.996,665.648,427.23 Q670.847,399.464,681.244,373.655 L681.244,373.655 Q684.424,365.582,688.889,357.631 Q693.353,349.681,700.448,344.299 Z M617.149,420.747 L617.149,420.747 L617.149,420.747 Q610.422,444.599,607.731,469.185 L607.731,469.185 Q607.364,472.488,607.119,475.79 L607.119,475.79 Q622.409,447.535,633.907,417.689 L633.907,417.689 Q634.519,415.855,635.253,413.897 L635.253,413.897 Q638.433,406.314,640.757,397.69 Q643.081,389.067,641.613,381.361 L641.613,381.361 Q641.368,380.26,640.818,379.71 Q640.268,379.159,639.778,379.098 Q639.289,379.037,639.044,379.159 L639.044,379.159 Q635.864,380.382,632.439,384.786 L632.439,384.786 Q626.813,392.737,623.265,402.094 Q619.718,411.451,617.149,420.747 Z M711.823,376.958 L711.823,376.958 L711.823,376.958 Q714.27,368.885,714.637,360.567 L714.637,360.567 Q714.759,357.631,713.903,354.818 L713.903,354.818 Q713.78,354.573,713.536,354.206 Q713.291,353.839,713.108,353.534 Q712.924,353.228,712.802,353.228 L712.802,353.228 Q711.823,352.249,710.661,352.372 Q709.499,352.494,708.276,353.228 L708.276,353.228 Q703.995,356.041,700.937,360.934 L700.937,360.934 Q695.677,368.885,692.13,377.814 Q688.583,386.743,685.892,395.794 L685.892,395.794 Q675.25,430.777,671.703,467.473 L671.703,467.473 Q684.424,444.232,695.433,420.136 L695.433,420.136 Q705.463,399.219,711.823,376.958 Z M743.993,478.726 L743.993,478.726 L743.993,478.726 Q744.849,480.194,744.849,481.906 L744.849,481.906 Q746.562,490.713,745.705,500.254 Q744.849,509.795,742.77,516.767 L742.77,516.767 Q740.201,526.307,734.452,536.215 Q728.703,546.123,719.958,551.444 Q711.212,556.765,699.714,552.606 L699.714,552.606 Q690.785,548.692,687.543,540.619 Q684.302,532.546,684.852,523.127 Q685.403,513.709,687.849,505.758 L687.849,505.758 Q690.051,497.807,694.454,489.001 L694.454,489.001 Q693.353,488.511,692.375,487.533 L692.375,487.533 Q688.705,483.129,692.558,478.848 Q696.411,474.567,703.445,471.142 Q710.478,467.717,716.227,465.883 L716.227,465.883 Q719.529,464.415,723.077,463.925 L723.077,463.925 Q724.667,463.681,725.89,464.17 L725.89,464.17 Q733.351,464.292,737.755,468.329 Q742.158,472.365,743.993,478.726 Z M722.954,475.913 L722.954,475.913 L722.954,475.913 Q720.63,476.769,718.551,477.992 L718.551,477.992 Q724.3,477.625,729.926,477.258 L729.926,477.258 Q728.459,476.035,726.012,475.79 L726.012,475.79 Q724.544,475.668,722.954,475.913 Z M699.836,478.604 L699.836,478.604 L699.836,478.604 L699.836,478.604 Q699.347,478.237,699.164,478.175 Q698.98,478.114,699.041,478.175 Q699.102,478.237,699.286,478.42 Q699.469,478.604,699.836,478.604 Z M720.997,535.604 L720.997,535.604 L720.997,535.604 Q727.969,526.797,731.394,515.299 Q734.819,503.801,734.574,492.67 L734.574,492.67 Q734.574,490.713,734.452,488.511 L734.452,488.511 Q733.963,488.511,733.596,488.634 L733.596,488.634 Q720.386,489.734,707.175,490.224 L707.175,490.224 Q707.175,490.224,707.175,490.224 L707.175,490.224 Q707.175,490.224,707.175,490.224 L707.175,490.224 Q703.873,495.85,701.671,501.232 L701.671,501.232 Q698.368,508.938,696.717,518.235 Q695.066,527.531,698.124,535.604 L698.124,535.604 Q701.916,543.432,708.949,542.453 Q715.982,541.475,720.997,535.604 Z" id="def-8f0ce2f1-aa53-4b75-a131-99ac6b7aeb1f"></path><mask id="mask-ac433173-e7dd-4ddb-b1df-9cf159feb823" x="185.994" y="221.793" width="628.011" height="556.413" maskUnits="userSpaceOnUse" stroke-width="0"><rect x="211.286" y="247.085" width="577.428" height="505.83" fill="#000"></rect><use xlink:href="#def-8f0ce2f1-aa53-4b75-a131-99ac6b7aeb1f" fill="#fff" stroke="#fff"></use></mask></defs><rect id="background-3114ec33-7729-456a-b52f-3cfff745a308" x="-272.059" y="0" width="1544.118" height="1000" fill="#e9f5f8"></rect><g mask="url(#mask-ac433173-e7dd-4ddb-b1df-9cf159feb823)"><rect x="211.286" y="247.085" width="577.428" height="505.83" fill="#35494f"></rect></g><g opacity="0"><rect fill="none" stroke="#fff" stroke-dasharray="11.029" stroke-dashoffset="0" stroke-width="1.838" x="-262.059" y="10" width="1524.118" height="980"></rect><rect fill="none" stroke="#000" stroke-dasharray="11.029" stroke-dashoffset="11.029" stroke-width="1.838" x="-262.059" y="10" width="1524.118" height="980"></rect></g><g opacity="1"></rect></rect></g></svg>