<svg xmlns="http://www.w3.org/2000/svg" width="512" height="512" viewBox="0 0 512 512" data-svgdocument="" id="_ZDpcmLMIRLgQVdtGhTZ8N" class="fl-svgdocument" x="0" y="0" style="overflow: visible; background-color:white;" xmlns:xlink="http://www.w3.org/1999/xlink"><defs id="_SfvkcsrzYAh59GvjCf_-V" transform="matrix(0.9800918662136731, 0, 0, 0.9800918662136731, 8.276410652922046, 29.06026265049709)" data-uid="o_ejjllbm0h_6"><linearGradient id="linearGradientSke8mc8dc5ke" x1="0" y1="0.5" x2="1" y2="0.5" data-uid="o_ejjllbm0h_7"><stop id="_SfmwBAhnrX5y_-xItFJFX" offset="0%" stop-color="#33b5cc" stop-opacity="0.53" data-uid="o_ejjllbm0h_8"></stop><stop id="_uppgOmvJmiJ5sG12km2jn" offset="100%" stop-color="#33b5cc" stop-opacity="0.53" data-uid="o_ejjllbm0h_9"></stop></linearGradient><linearGradient id="linearGradientSke8mc8dc5ko" x1="0" y1="0.5" x2="1" y2="0.5" data-uid="o_ejjllbm0h_10"><stop id="_tbIwmNj3oWPFS3gGTbofb" offset="0%" stop-color="#ec4c4c" stop-opacity="0.77" data-uid="o_ejjllbm0h_11"></stop><stop id="_5yPsjphs6SDntc8qzGDFK" offset="100%" stop-color="#ec4c4c" stop-opacity="0.77" data-uid="o_ejjllbm0h_12"></stop></linearGradient></defs><g id="_bh4yFSGXvCIksWryRUBfh" transform="matrix(0.8124990581650426, 0, 0, 0.8124990581650426, 47.999650281473556, 47.99986321743776)" data-uid="o_ejjllbm0h_13"><path id="_lFHLCIm9jrAhMzvb5TT7Q" fill-rule="evenodd" clip-rule="evenodd" d="M73.232,28.96c-5.631,0-10.194,4.567-10.194,10.197   c0,8.74-4.368,13.108-13.11,13.108c-8.737,0-13.111-4.369-13.111-13.108c0-5.63-4.563-10.197-10.194-10.197   s-10.194,4.567-10.194,10.197c0,5.631,4.563,10.198,10.194,10.198c8.742,0,13.111,4.369,13.111,13.111   c0,5.631,4.563,10.194,10.195,10.194c5.63,0,10.2-4.563,10.2-10.194c0-8.742,4.368-13.111,13.104-13.111   c5.637,0,10.2-4.567,10.2-10.198C83.433,33.527,78.869,28.96,73.232,28.96z" fill="#ede576" transform="matrix(1.3592214584350586, 0, 0, 1.3592214584350586, 190.8471221923828, 128.82566833496094)" data-uid="o_ejjllbm0h_14"></path><path id="_1NJrTZPTBjGBjdtSlhx8M" fill-rule="evenodd" clip-rule="evenodd" d="M73.232,28.96c-5.631,0-10.194,4.567-10.194,10.197   c0,8.74-4.368,13.108-13.11,13.108c-8.737,0-13.111-4.369-13.111-13.108c0-5.63-4.563-10.197-10.194-10.197   s-10.194,4.567-10.194,10.197c0,5.631,4.563,10.198,10.194,10.198c8.742,0,13.111,4.369,13.111,13.111   c0,5.631,4.563,10.194,10.195,10.194c5.63,0,10.2-4.563,10.2-10.194c0-8.742,4.368-13.111,13.104-13.111   c5.637,0,10.2-4.567,10.2-10.198C83.433,33.527,78.869,28.96,73.232,28.96z" fill="url('#linearGradientSke8mc8dc5ke')" transform="matrix(1.3592214584350586, 0, 0, 1.3592214584350586, 222.15106201171875, 160.4798583984375)" data-uid="o_ejjllbm0h_15"></path><path id="_Xzmaaa6FYpgU9qEdtVcin" fill-rule="evenodd" clip-rule="evenodd" d="M73.232,28.96c-5.631,0-10.194,4.567-10.194,10.197   c0,8.74-4.368,13.108-13.11,13.108c-8.737,0-13.111-4.369-13.111-13.108c0-5.63-4.563-10.197-10.194-10.197   s-10.194,4.567-10.194,10.197c0,5.631,4.563,10.198,10.194,10.198c8.742,0,13.111,4.369,13.111,13.111   c0,5.631,4.563,10.194,10.195,10.194c5.63,0,10.2-4.563,10.2-10.194c0-8.742,4.368-13.111,13.104-13.111   c5.637,0,10.2-4.567,10.2-10.198C83.433,33.527,78.869,28.96,73.232,28.96z" fill="url('#linearGradientSke8mc8dc5ko')" transform="matrix(0, 1.3592214584350586, -1.3592214584350586, 0, 280.41424560546875, 145.50982666015625)" data-uid="o_ejjllbm0h_16"></path></g><path text="JDM.BOT" text-anchor="middle" font-size="100" letter-spacing="0" side="left" offset="0.5" dx="0" dy="0" space="preserve" href="" font-family="Bungee" font-scale="contain" transform="matrix(0.509616074803922, 0, 0, 0.509616074803922, 255.77007556000058, 326.8647247460141)" x="0" y="0" fill="#3a3a3a" data-fl-textpath="" id="_nGJWNybCRTxZiPxyJCFCo" data-uid="o_ejjllbm0h_17" d="M-187.85000000000002-68.4L-187.85000000000002-18.9Q-187.85000000000002-14.3 -189.15000000000003-10.55Q-190.45000000000005-6.8 -193.70000000000005-4.15Q-196.95000000000005-1.5 -202.65000000000003 0Q-208.35000000000002 1.5 -217.15000000000003 1.5L-217.15000000000003 1.5Q-225.85000000000002 1.5 -231.50000000000003 0Q-237.15000000000003-1.5 -240.40000000000003-4.15Q-243.65000000000003-6.8 -244.90000000000003-10.55Q-246.15000000000003-14.3 -246.15000000000003-18.9L-246.15000000000003-18.9L-246.15000000000003-35.1Q-246.15000000000003-37 -245.30000000000004-37.85Q-244.45000000000002-38.7 -242.55000000000004-38.7L-242.55000000000004-38.7L-228.05000000000004-38.7Q-226.15000000000003-38.7 -225.30000000000004-37.85Q-224.45000000000002-37 -224.45000000000002-35.1L-224.45000000000002-35.1L-224.45000000000002-22.9Q-224.45000000000002-20.9 -223.20000000000002-19.55Q-221.95000000000002-18.2 -217.35000000000002-18.2L-217.35000000000002-18.2Q-213.05-18.2 -211.90000000000003-19.55Q-210.75000000000003-20.9 -210.75000000000003-22.9L-210.75000000000003-22.9L-210.75000000000003-68.4Q-210.75000000000003-70.3 -209.90000000000003-71.15Q-209.05-72 -207.15000000000003-72L-207.15000000000003-72L-191.45000000000005-72Q-189.55-72 -188.70000000000005-71.15Q-187.85000000000002-70.3 -187.85000000000002-68.4L-187.85000000000002-68.4ZM-137.25000000000006 0L-137.25000000000006 0L-170.95000000000005 0Q-172.85000000000005 0 -173.70000000000005-0.85Q-174.55000000000004-1.7 -174.55000000000004-3.6L-174.55000000000004-3.6L-174.55000000000004-68.4Q-174.55000000000004-70.3 -173.70000000000005-71.15Q-172.85000000000005-72 -170.95000000000005-72L-170.95000000000005-72L-137.25000000000006-72Q-124.75000000000004-72 -118.70000000000005-67Q-112.65000000000005-62 -112.65000000000005-51.6L-112.65000000000005-51.6L-112.65000000000005-20.4Q-112.65000000000005-10 -118.70000000000005-5Q-124.75000000000004 0 -137.25000000000006 0ZM-139.95000000000005-52.9L-151.85000000000005-52.9L-151.85000000000005-18.9L-139.95000000000005-18.9Q-137.55000000000004-18.9 -136.40000000000003-20.1Q-135.25000000000006-21.3 -135.25000000000006-23.8L-135.25000000000006-23.8L-135.25000000000006-48.1Q-135.25000000000006-50.6 -136.40000000000003-51.75Q-137.55000000000004-52.9 -139.95000000000005-52.9L-139.95000000000005-52.9ZM-81.45000000000005 0L-81.45000000000005 0L-96.35000000000004 0Q-98.25000000000004 0 -99.10000000000004-0.85Q-99.95000000000003-1.7 -99.95000000000003-3.6L-99.95000000000003-3.6L-99.95000000000003-68.4Q-99.95000000000003-70.3 -99.10000000000004-71.15Q-98.25000000000004-72 -96.35000000000004-72L-96.35000000000004-72L-80.25000000000003-72Q-78.65000000000003-72 -77.60000000000004-71.3Q-76.55000000000004-70.6 -75.65000000000003-69L-75.65000000000003-69L-66.65000000000003-52.7Q-66.15000000000003-51.8 -65.80000000000004-51.4Q-65.45000000000005-51 -64.85000000000004-51L-64.85000000000004-51L-63.95000000000004-51Q-63.35000000000004-51 -63.000000000000036-51.4Q-62.650000000000034-51.8 -62.150000000000034-52.7L-62.150000000000034-52.7L-53.250000000000036-69Q-52.35000000000004-70.6 -51.30000000000004-71.3Q-50.250000000000036-72 -48.650000000000034-72L-48.650000000000034-72L-32.45000000000003-72Q-30.55000000000004-72 -29.70000000000003-71.15Q-28.850000000000037-70.3 -28.850000000000037-68.4L-28.850000000000037-68.4L-28.850000000000037-3.6Q-28.850000000000037-1.7 -29.70000000000003-0.85Q-30.55000000000004 0 -32.45000000000003 0L-32.45000000000003 0L-47.85000000000004 0Q-49.750000000000036 0 -50.60000000000004-0.85Q-51.45000000000004-1.7 -51.45000000000004-3.6L-51.45000000000004-3.6L-51.45000000000004-38.8L-57.35000000000004-27.9Q-58.250000000000036-26.2 -59.500000000000036-25.45Q-60.750000000000036-24.7 -62.650000000000034-24.7L-62.650000000000034-24.7L-66.65000000000003-24.7Q-68.55000000000004-24.7 -69.80000000000004-25.45Q-71.05000000000004-26.2 -71.95000000000005-27.9L-71.95000000000005-27.9L-77.85000000000004-38.8L-77.85000000000004-3.6Q-77.85000000000004-1.7 -78.70000000000005-0.85Q-79.55000000000004 0 -81.45000000000005 0ZM 29.84999999999997 0L 29.84999999999997 0L 9.649999999999968 0Q 7.749999999999969 0  6.899999999999968-0.85Q 6.049999999999969-1.7  6.049999999999969-3.6L 6.049999999999969-3.6L 6.049999999999969-23.9Q 6.049999999999969-25.8  6.899999999999968-26.65Q 7.749999999999969-27.5  9.649999999999968-27.5L 9.649999999999968-27.5L 29.84999999999997-27.5Q 31.749999999999968-27.5  32.599999999999966-26.65Q 33.44999999999997-25.8  33.44999999999997-23.9L 33.44999999999997-23.9L 33.44999999999997-3.6Q 33.44999999999997-1.7  32.599999999999966-0.85Q 31.749999999999968 0  29.84999999999997 0ZM 87.84999999999997 0L 87.84999999999997 0L 49.449999999999974 0Q 47.549999999999976 0  46.699999999999974-0.85Q 45.84999999999997-1.7  45.84999999999997-3.6L 45.84999999999997-3.6L 45.84999999999997-68.4Q 45.84999999999997-70.3  46.699999999999974-71.15Q 47.549999999999976-72  49.449999999999974-72L 49.449999999999974-72L 81.34999999999997-72Q 91.14999999999998-72  95.84999999999997-68.25Q 100.54999999999998-64.5  100.54999999999998-56.7L 100.54999999999998-56.7L 100.54999999999998-51.9Q 100.54999999999998-47.7  99.09999999999997-45.05Q 97.64999999999998-42.4  94.64999999999998-41.1L 94.64999999999998-41.1Q 101.04999999999998-40.5  104.14999999999998-36.7Q 107.24999999999997-32.9  107.24999999999997-25.6L 107.24999999999997-25.6L 107.24999999999997-16.4Q 107.24999999999997-8  102.49999999999997-4Q 97.74999999999997 0  87.84999999999997 0ZM 76.84999999999997-55L 68.34999999999997-55L 68.34999999999997-44.2L 76.84999999999997-44.2Q 78.74999999999997-44.2  79.69999999999997-45.2Q 80.64999999999998-46.2  80.64999999999998-48.2L 80.64999999999998-48.2L 80.64999999999998-51Q 80.64999999999998-53  79.69999999999997-54Q 78.74999999999997-55  76.84999999999997-55L 76.84999999999997-55ZM 81.34999999999997-28.8L 68.34999999999997-28.8L 68.34999999999997-17L 81.34999999999997-17Q 83.24999999999997-17  84.19999999999997-18Q 85.14999999999998-19  85.14999999999998-21L 85.14999999999998-21L 85.14999999999998-24.9Q 85.14999999999998-26.9  84.19999999999997-27.85Q 83.24999999999997-28.8  81.34999999999997-28.8L 81.34999999999997-28.8ZM 179.35-53L 179.35-18.9Q 179.35-14.3  178-10.55Q 176.64999999999998-6.8  173.2-4.15Q 169.75-1.5  163.7 0Q 157.64999999999998 1.5  148.35 1.5L 148.35 1.5Q 139.04999999999998 1.5  132.95 0Q 126.85-1.5  123.39999999999999-4.15Q 119.94999999999999-6.8  118.6-10.55Q 117.24999999999999-14.3  117.24999999999999-18.9L 117.24999999999999-18.9L 117.24999999999999-53Q 117.24999999999999-57.6  118.6-61.35Q 119.94999999999999-65.1  123.39999999999999-67.8Q 126.85-70.5  132.95-72Q 139.04999999999998-73.5  148.35-73.5L 148.35-73.5Q 157.64999999999998-73.5  163.7-72Q 169.75-70.5  173.2-67.8Q 176.64999999999998-65.1  178-61.35Q 179.35-57.6  179.35-53L 179.35-53ZM 139.95-49.4L 139.95-22.5Q 139.95-20.5  141.45-19.15Q 142.95-17.8  148.35-17.8L 148.35-17.8Q 153.75-17.8  155.25-19.15Q 156.75-20.5  156.75-22.5L 156.75-22.5L 156.75-49.4Q 156.75-51.3  155.25-52.65Q 153.75-54  148.35-54L 148.35-54Q 142.95-54  141.45-52.65Q 139.95-51.3  139.95-49.4L 139.95-49.4ZM 225.54999999999998 0L 225.54999999999998 0L 209.34999999999997 0Q 207.45 0  206.59999999999997-0.85Q 205.74999999999997-1.7  205.74999999999997-3.6L 205.74999999999997-3.6L 205.74999999999997-52.7L 191.04999999999998-52.7Q 189.14999999999998-52.7  188.29999999999998-53.55Q 187.45-54.4  187.45-56.3L 187.45-56.3L 187.45-68.4Q 187.45-70.3  188.29999999999998-71.15Q 189.14999999999998-72  191.04999999999998-72L 191.04999999999998-72L 243.84999999999997-72Q 245.74999999999997-72  246.59999999999997-71.15Q 247.45-70.3  247.45-68.4L 247.45-68.4L 247.45-56.3Q 247.45-54.4  246.59999999999997-53.55Q 245.74999999999997-52.7  243.84999999999997-52.7L 243.84999999999997-52.7L 229.14999999999998-52.7L 229.14999999999998-3.6Q 229.14999999999998-1.7  228.29999999999998-0.85Q 227.45 0  225.54999999999998 0Z"></path></svg>